<?xml version="1.0" encoding="utf-8"?>
<!-- Generator: Adobe Illustrator 22.0.1, SVG Export Plug-In . SVG Version: 6.00 Build 0)  -->
<svg version="1.1" id="Layer_1" xmlns="http://www.w3.org/2000/svg" xmlns:xlink="http://www.w3.org/1999/xlink" x="0px" y="0px"
	 viewBox="0 0 192.9 65.6" enable-background="new 0 0 192.9 65.6" xml:space="preserve">
<g id="XMLID_253_">
	<g id="XMLID_354_">
		<g>
			<path id="XMLID_359_" fill="#8DD0F4" d="M42.3,33.7V28h17.4l0,23.7c0,0-1.6,1.5-4.7,2.8"/>
			<path fill="#3C3C3B" d="M55.2,55l-0.4-1c2.4-1,3.9-2.1,4.4-2.5l0-23H42.9v5.2h-1v-6.2h18.4l0,24.5l-0.2,0.2
				C60,52.2,58.4,53.7,55.2,55z"/>
		</g>
		<g>
			<path id="XMLID_357_" fill="#A0D3C7" d="M32.8,0.5c7.6,0,15.8,3.1,21.9,8.5L45.4,19c-3.4-3.1-7.4-4.3-11.8-4.3
				c-9.8,0-17.7,8.3-17.7,18.2c0,4.9,1.9,9.2,5.1,12.5l-10,11.3C4.5,50.8,0.5,42.4,0.5,32.9C0.5,14.9,14.9,0.5,32.8,0.5z"/>
			<path fill="#3C3C3B" d="M11,57.4l-0.4-0.4C3.8,50.8,0,42.2,0,32.9c0-8.8,3.4-17.1,9.6-23.3C15.8,3.4,24,0,32.8,0
				c7.8,0,16.1,3.2,22.3,8.6l0.4,0.4L45.4,19.8L45,19.4c-3.1-2.8-6.8-4.2-11.4-4.2c-9.5,0-17.2,7.9-17.2,17.6
				c0,4.6,1.8,8.9,4.9,12.1l0.3,0.3L11,57.4z M32.8,1c-8.5,0-16.5,3.3-22.5,9.3c-6,6-9.3,14-9.3,22.6c0,8.9,3.5,17,9.9,23l9.4-10.5
				c-3.2-3.4-4.9-7.8-4.9-12.5c0-10.3,8.2-18.7,18.2-18.7c4.7,0,8.6,1.3,11.7,4.1L54,9C48,4,40.2,1,32.8,1z"/>
		</g>
		<g>
			<path id="XMLID_355_" fill="#FFFFFF" d="M21,45.4c3.2,3.3,7.8,5.4,12.7,5.4c2.6,0,5.3-0.4,8-1.4v-5.2h-6.8V31.9h20.9v27.3
				c0,0-7.9,5.8-23,5.8c-8.5,0-16.1-3.2-21.9-8.4L21,45.4z"/>
			<path fill="#3C3C3B" d="M32.8,65.6c-8.3,0-16.2-3-22.2-8.6l-0.4-0.3L21,44.6l0.4,0.4c3.3,3.4,7.7,5.3,12.4,5.3
				c2.8,0,5.2-0.4,7.5-1.3v-4.3h-6.8V31.4h21.9v28.1l-0.2,0.2C55.8,59.9,48,65.6,32.8,65.6z M11.7,56.6c5.8,5.1,13.3,7.9,21.1,7.9
				c13.5,0,21.2-4.7,22.5-5.6V32.4H35.5v11.2h6.8v6.1l-0.3,0.1c-2.5,1-5.2,1.5-8.2,1.5c-4.8,0-9.3-1.8-12.7-5.2L11.7,56.6z"/>
		</g>
	</g>
	<g>
		<polyline id="XMLID_353_" fill="#FFFFFF" points="148.9,32 148.9,54.4 74.4,54.4 74.4,32 		"/>
		<polygon fill="#3C3C3B" points="149.4,55 73.9,55 73.9,32 74.9,32 74.9,53.9 148.4,53.9 148.4,32 149.4,32 		"/>
	</g>
	<g id="XMLID_336_">
		<path id="XMLID_350_" fill="#3C3C3B" d="M122.7,48.7l5.7-12.3l5.7,12.3h-2.7l-0.8-1.7h-4.5l-0.8,1.7H122.7z M129.7,44.7l-1.3-2.7
			h0l-1.2,2.7H129.7z"/>
		<path id="XMLID_348_" fill="#3C3C3B" d="M85.9,37c1.4,0,2.9,0.6,4,1.6l-1.7,1.9c-0.6-0.6-1.4-0.8-2.2-0.8c-1.8,0-3.3,1.5-3.3,3.3
			c0,1.8,1.5,3.3,3.3,3.3c0.5,0,1-0.1,1.5-0.3v-1h-1.4v-2.2h4v5c0,0-1.4,1.1-4.2,1.1c-3.3,0-5.9-2.6-5.9-5.9
			C80,39.7,82.7,37,85.9,37z"/>
		<path id="XMLID_346_" fill="#3C3C3B" d="M92.8,37.2h2.6v9.1h4.2v2.4h-6.8V37.2z"/>
		<path id="XMLID_344_" fill="#3C3C3B" d="M135.8,37.2h2.6v9.1h4.2v2.4h-6.8V37.2z"/>
		<path id="XMLID_341_" fill="#3C3C3B" d="M106.2,37c3.3,0,6,2.7,6,6c0,3.3-2.6,5.9-6,5.9c-3.3,0-5.9-2.6-5.9-5.9
			C100.3,39.7,102.9,37,106.2,37z M106.2,46.3c1.8,0,3.3-1.5,3.3-3.3c0-1.8-1.5-3.3-3.3-3.3c-1.8,0-3.3,1.5-3.3,3.3
			C102.9,44.8,104.4,46.3,106.2,46.3z"/>
		<path id="XMLID_337_" fill="#3C3C3B" d="M113.9,37.2h4.2c2,0,3.6,1.3,3.6,3.1c0,1.3-1.1,2.2-1.9,2.6c0.9,0.4,2.2,1.2,2.2,2.7
			c0,1.9-1.6,3.2-3.6,3.2h-4.4V37.2z M117.7,41.9c0.6,0,1.2-0.5,1.2-1.2c0-0.7-0.5-1.1-1.2-1.1h-1.3v2.3H117.7z M117.9,46.4
			c0.6,0,1.2-0.5,1.2-1.2c0-0.7-0.7-1.2-1.4-1.2h-1.3v2.4H117.9z"/>
	</g>
	<g>
		<rect id="XMLID_335_" x="74.4" y="9.7" fill="#FFFFFF" width="118" height="22.5"/>
		<path fill="#3C3C3B" d="M192.9,32.7h-119V9.1h119V32.7z M74.9,31.6h116.9V10.2H74.9V31.6z"/>
	</g>
	<g id="XMLID_254_">
		<path id="XMLID_332_" fill="#3C3C3B" d="M136.1,26.7l5.7-12.3l5.7,12.3h-2.7l-0.8-1.7h-4.5l-0.8,1.7H136.1z M143.1,22.7l-1.3-2.7
			h0l-1.2,2.7H143.1z"/>
		<path id="XMLID_330_" fill="#3C3C3B" d="M115.7,15.1h7.5v2.4h-4.9v2.1h4.1V22h-4.1v2.2h4.9v2.4h-7.5V15.1z"/>
		<path id="XMLID_328_" fill="#3C3C3B" d="M85.9,15c1.4,0,2.9,0.6,4,1.6l-1.7,1.9c-0.6-0.6-1.4-0.8-2.2-0.8c-1.8,0-3.3,1.5-3.3,3.3
			c0,1.8,1.5,3.3,3.3,3.3c0.5,0,1-0.1,1.5-0.3v-1h-1.4v-2.2h4v5c0,0-1.4,1.1-4.2,1.1c-3.3,0-5.9-2.6-5.9-5.9S82.6,15,85.9,15z"/>
		<path id="XMLID_326_" fill="#3C3C3B" d="M92.8,15.1h7.5v2.4h-4.9v2.1h4.1V22h-4.1v2.2h4.9v2.4h-7.5V15.1z"/>
		<path id="XMLID_324_" fill="#3C3C3B" d="M102.8,14.9l7.3,6.3v-6.3h2.6v11.9l-7.3-6.3v6.1h-0.3h-2h-0.3L102.8,14.9z"/>
		<path id="XMLID_322_" fill="#3C3C3B" d="M175.8,14.9l7.3,6.3v-6.3h2.6v11.9l-7.3-6.3v6.1h-0.3h-2h-0.3L175.8,14.9z"/>
		<path id="XMLID_319_" fill="#3C3C3B" d="M126.1,15.1h5.3c2,0,3.6,1.6,3.6,3.6c0,1.5-1,2.7-2.4,3.3l2.5,4.7h-2.9l-2.3-4.5h-1.1v4.5
			h-2.6V15.1z M131.1,20c0.7,0,1.3-0.6,1.3-1.3s-0.6-1.3-1.3-1.3h-2.4V20H131.1z"/>
		<path id="XMLID_317_" fill="#3C3C3B" d="M149.6,17.5H147v-2.4h8v2.4h-2.7v9.1h-2.6V17.5z"/>
		<path id="XMLID_315_" fill="#3C3C3B" d="M157.2,15.1h2.6v11.6h-2.6V15.1z"/>
		<path id="XMLID_312_" fill="#3C3C3B" d="M167.8,14.9c3.3,0,6,2.7,6,6s-2.6,5.9-6,5.9c-3.3,0-5.9-2.6-5.9-5.9
			S164.5,14.9,167.8,14.9z M167.8,24.2c1.8,0,3.3-1.5,3.3-3.3c0-1.8-1.5-3.3-3.3-3.3c-1.8,0-3.3,1.5-3.3,3.3
			C164.5,22.7,166,24.2,167.8,24.2z"/>
	</g>
</g>
</svg>
